<svg xmlns='http://www.w3.org/2000/svg' viewBox="0 0 24 24" class="icon icon-pinterest">
  <path fill="currentColor" d="M19,0H5C2.25,0,0,2.25,0,5v14C0,21.75,2.25,24,5,24h14c2.75,0,5-2.25,5-5V5C24,2.25,21.75,0,19,0Zm-7,18.7c-.69,0-1.35-.1-1.97-.3,.27-.43,.71-1.2,.86-1.81,.08-.31,.42-1.59,.42-1.59,.22,.41,.85,.77,1.53,.77,2.01,0,3.46-1.85,3.46-4.15s-1.8-3.85-4.11-3.85c-2.88,0-4.41,1.93-4.41,4.04,0,.98,.52,2.2,1.35,2.58,.13,.06,.19,.03,.22-.09,.02-.09,.13-.55,.19-.76,.02-.07,0-.13-.05-.19-.28-.33-.5-.95-.5-1.52,0-1.47,1.11-2.89,3.01-2.89,1.64,0,2.79,1.12,2.79,2.71,0,1.8-.91,3.05-2.1,3.05-.65,0-1.14-.54-.99-1.21,.19-.79,.55-1.65,.55-2.22,0-.51-.27-.94-.84-.94-.67,0-1.21,.69-1.21,1.62,0,.59,.2,.99,.2,.99,0,0-.66,2.79-.78,3.32-.14,.61-.08,1.47-.01,1.99-2.52-.96-4.32-3.4-4.32-6.26,0-3.7,3-6.7,6.7-6.7s6.7,3,6.7,6.7-3,6.7-6.7,6.7Z"></path>
</svg>
